<svg
    xmlns="http://www.w3.org/2000/svg"
    viewBox="0 0 17 17"
    id="vector">
    <path
        id="path"
        d="M 7.938 0 L 7.938 2.646 L 5.292 2.646 L 5.292 3.969 L 3.969 3.969 L 3.969 5.292 L 2.646 5.292 L 2.646 7.937 L 0 7.937 L 0 9.26 L 2.646 9.26 L 2.646 11.906 L 3.969 11.906 L 3.969 13.229 L 5.292 13.229 L 5.292 14.552 L 7.938 14.552 L 7.938 17.198 L 9.26 17.198 L 9.26 14.552 L 11.906 14.552 L 11.906 13.229 L 13.229 13.229 L 13.229 11.906 L 14.552 11.906 L 14.552 9.26 L 17.198 9.26 L 17.198 7.937 L 14.552 7.937 L 14.552 5.292 L 13.229 5.292 L 13.229 3.969 L 11.906 3.969 L 11.906 2.646 L 9.26 2.646 L 9.26 0 Z"
        fill="#000000"
        stroke="#00000000"
        stroke-width="0.535871"
        stroke-linecap="round"
        stroke-linejoin="round"/>
    <path
        id="path_1"
        d="M 2.646 2.646 L 3.969 2.646 L 3.969 3.969 L 2.646 3.969 Z"
        fill="#000000"
        stroke="#00000000"
        stroke-width="0.0765531"
        stroke-linecap="round"
        stroke-linejoin="round"/>
    <path
        id="path_2"
        d="M 13.229 2.646 L 14.552 2.646 L 14.552 3.969 L 13.229 3.969 Z"
        fill="#000000"
        stroke="#00000000"
        stroke-width="0.0765531"
        stroke-linecap="round"
        stroke-linejoin="round"/>
    <path
        id="path_3"
        d="M 13.229 13.229 L 14.552 13.229 L 14.552 14.552 L 13.229 14.552 Z"
        fill="#000000"
        stroke="#00000000"
        stroke-width="0.0765531"
        stroke-linecap="round"
        stroke-linejoin="round"/>
    <path
        id="path_4"
        d="M 2.646 13.229 L 3.969 13.229 L 3.969 14.552 L 2.646 14.552 Z"
        fill="#000000"
        stroke="#00000000"
        stroke-width="0.0765531"
        stroke-linecap="round"
        stroke-linejoin="round"/>
    <path
        id="path_5"
        d="M 5.292 5.292 L 7.938 5.292 L 7.938 7.938 L 5.292 7.938 Z"
        fill="#ffffff"
        stroke="#00000000"
        stroke-width="0.95"
        stroke-linecap="round"
        stroke-linejoin="round"/>
    <path
        id="path_6"
        d="M 0 0 L 0 1.323 L 0.794 1.323 L 0.794 2.646 L 2.117 2.646 L 2.117 3.969 L 3.439 3.969 L 3.439 5.292 L 4.762 5.292 L 4.762 6.614 L 6.085 6.614 L 6.085 7.937 L 7.408 7.937 L 7.408 9.26 L 6.085 9.26 L 6.085 10.583 L 4.763 10.583 L 4.763 11.906 L 3.44 11.906 L 3.44 13.229 L 2.117 13.229 L 2.117 14.552 L 0.794 14.552 L 0.794 15.875 L 0 15.875 L 0 17.198 L 2.117 17.198 L 2.117 15.875 L 3.44 15.875 L 3.44 14.552 L 4.763 14.552 L 4.763 13.229 L 6.085 13.229 L 6.085 11.906 L 7.408 11.906 L 7.408 10.583 C 8.29 10.583 9.172 10.583 10.054 10.583 L 10.054 11.906 L 11.377 11.906 L 11.377 13.229 L 12.7 13.229 L 12.7 14.552 L 14.023 14.552 L 14.023 15.875 L 15.346 15.875 L 15.346 17.198 L 17.198 17.198 L 17.198 15.875 L 16.669 15.875 L 16.669 14.552 L 15.346 14.552 L 15.346 13.229 L 14.023 13.229 L 14.023 11.906 L 12.7 11.906 L 12.7 10.583 L 11.377 10.583 L 11.377 9.26 L 10.054 9.26 L 10.054 7.938 L 11.377 7.938 L 11.377 6.615 L 12.7 6.615 L 12.7 5.292 L 14.023 5.292 L 14.023 3.969 L 15.346 3.969 L 15.346 2.646 L 16.669 2.646 L 16.669 1.323 L 17.198 1.323 L 17.198 0 L 15.346 0 L 15.346 1.323 L 14.023 1.323 L 14.023 2.646 L 12.7 2.646 L 12.7 3.969 L 11.377 3.969 L 11.377 5.292 L 10.054 5.292 L 10.054 6.615 C 9.172 6.615 8.29 6.615 7.408 6.615 L 7.408 5.292 L 6.085 5.292 L 6.085 3.969 L 4.763 3.969 L 4.763 2.646 L 3.44 2.646 L 3.44 1.323 L 2.117 1.323 L 2.117 0 Z"
        fill="#ff0000"
        stroke="#00000000"
        stroke-width="0.108262"
        stroke-linecap="round"
        stroke-linejoin="round"/>
</svg>
