<svg
    xmlns="http://www.w3.org/2000/svg"
    viewBox="0 0 17 17"
    id="vector">
    <path
        id="path"
        d="M 7.938 0 L 7.938 2.646 L 5.292 2.646 L 5.292 3.969 L 3.969 3.969 L 3.969 5.292 L 2.646 5.292 L 2.646 7.937 L 0 7.937 L 0 9.26 L 2.646 9.26 L 2.646 11.906 L 3.969 11.906 L 3.969 13.229 L 5.292 13.229 L 5.292 14.552 L 7.938 14.552 L 7.938 17.198 L 9.26 17.198 L 9.26 14.552 L 11.906 14.552 L 11.906 13.229 L 13.229 13.229 L 13.229 11.906 L 14.552 11.906 L 14.552 9.26 L 17.198 9.26 L 17.198 7.937 L 14.552 7.937 L 14.552 5.292 L 13.229 5.292 L 13.229 3.969 L 11.906 3.969 L 11.906 2.646 L 9.26 2.646 L 9.26 0 Z"
        fill="#000000"
        stroke="#00000000"
        stroke-width="0.5358712"
        stroke-linecap="round"
        stroke-linejoin="round"/>
    <path
        id="path_1"
        d="M 2.646 2.646 L 3.969 2.646 L 3.969 3.969 L 2.646 3.969 Z"
        fill="#000000"
        stroke="#00000000"
        stroke-width="0.0765531"
        stroke-linecap="round"
        stroke-linejoin="round"/>
    <path
        id="path_2"
        d="M 13.229 2.646 L 14.552 2.646 L 14.552 3.969 L 13.229 3.969 Z"
        fill="#000000"
        stroke="#00000000"
        stroke-width="0.0765531"
        stroke-linecap="round"
        stroke-linejoin="round"/>
    <path
        id="path_3"
        d="M 13.229 13.229 L 14.552 13.229 L 14.552 14.552 L 13.229 14.552 Z"
        fill="#000000"
        stroke="#00000000"
        stroke-width="0.0765531"
        stroke-linecap="round"
        stroke-linejoin="round"/>
    <path
        id="path_4"
        d="M 2.646 13.229 L 3.969 13.229 L 3.969 14.552 L 2.646 14.552 Z"
        fill="#000000"
        stroke="#00000000"
        stroke-width="0.0765531"
        stroke-linecap="round"
        stroke-linejoin="round"/>
    <path
        id="path_5"
        d="M 5.292 5.292 L 7.938 5.292 L 7.938 7.938 L 5.292 7.938 Z"
        fill="#ffffff"
        stroke="#00000000"
        stroke-width="0.95"
        stroke-linecap="round"
        stroke-linejoin="round"/>
</svg>
