<svg xmlns="http://www.w3.org/2000/svg" viewBox="0 0 29 55" width="29" height="55" id="vector">
    <path id="path"
        d="M 7.938 47.625 L 7.938 50.271 L 5.292 50.271 L 5.292 52.917 L 2.646 52.917 L 2.646 55.563 L 26.458 55.563 L 26.458 52.917 L 23.813 52.917 L 23.813 50.271 L 21.167 50.271 L 21.167 47.625 Z"
        fill="#ff0000" stroke-width="2.850012" stroke-linecap="round" stroke-linejoin="round" />
    <path id="path_1"
        d="M 0 2.646 L 0 26.458 L 2.646 26.458 L 2.646 23.813 L 5.292 23.813 L 5.292 21.167 L 7.938 21.167 L 7.938 7.938 L 5.292 7.938 L 5.292 5.292 L 2.646 5.292 L 2.646 2.646 Z"
        fill="#ff0000" stroke-width="2.850012" stroke-linecap="round" stroke-linejoin="round" />
    <path id="path_2"
        d="M 26.458 2.646 L 26.458 5.292 L 23.813 5.292 L 23.813 7.937 L 21.167 7.937 L 21.167 21.167 L 23.813 21.167 L 23.813 23.812 L 26.458 23.812 L 26.458 26.458 L 29.104 26.458 L 29.104 2.646 Z"
        fill="#ff0000" stroke-width="2.1242707" stroke-linecap="round" stroke-linejoin="round" />
    <path id="path_3"
        d="M 2.646 0 L 2.646 2.646 L 5.292 2.646 L 5.292 5.292 L 7.937 5.292 L 7.937 7.937 L 21.167 7.937 L 21.167 5.292 L 23.813 5.292 L 23.813 2.646 L 26.458 2.646 L 26.458 0 Z"
        fill="#ff0000" stroke-width="2.1242707" stroke-linecap="round" stroke-linejoin="round" />
    <path id="path_4"
        d="M 26.458 29.104 L 26.458 31.75 L 23.813 31.75 L 23.813 34.396 L 21.167 34.396 L 21.167 47.625 L 23.813 47.625 L 23.813 50.271 L 26.458 50.271 L 26.458 52.917 L 29.104 52.917 L 29.104 29.104 Z"
        fill="#ff0000" stroke-width="2.1242707" stroke-linecap="round" stroke-linejoin="round" />
    <path id="path_5"
        d="M 0 29.104 L 0 52.917 L 2.646 52.917 L 2.646 50.271 L 5.292 50.271 L 5.292 47.625 L 7.938 47.625 L 7.938 34.396 L 5.292 34.396 L 5.292 31.75 L 2.646 31.75 L 2.646 29.104 Z"
        fill="#ff0000" stroke-width="2.1242707" stroke-linecap="round" stroke-linejoin="round" />
    <path id="path_6" d="M 13.229 23.813 L 15.875 23.813 L 15.875 26.458 L 13.229 26.458 Z"
        fill="#7f0000" stroke-width="0.949997" stroke-linecap="round" stroke-linejoin="round" />
    <path id="path_7" d="M 10.583 26.458 L 13.229 26.458 L 13.229 29.104 L 10.583 29.104 Z"
        fill="#7f0000" stroke-width="0.949997" stroke-linecap="round" stroke-linejoin="round" />
    <path id="path_8" d="M 15.875 26.389 L 18.521 26.389 L 18.521 29.104 L 15.875 29.104 Z"
        fill="#7f0000" stroke-width="0.962403" stroke-linecap="round" stroke-linejoin="round" />
    <path id="path_9" d="M 13.229 29.104 L 15.875 29.104 L 15.875 31.75 L 13.229 31.75 Z"
        fill="#7f0000" stroke-width="0.949997" stroke-linecap="round" stroke-linejoin="round" />
    <path id="path_10" d="M 7.938 29.104 L 10.583 29.104 L 10.583 31.75 L 7.938 31.75 Z"
        fill="#7f0000" stroke-width="0.949997" stroke-linecap="round" stroke-linejoin="round" />
    <path id="path_11" d="M 7.938 23.813 L 10.583 23.813 L 10.583 26.458 L 7.938 26.458 Z"
        fill="#7f0000" stroke-width="0.949997" stroke-linecap="round" stroke-linejoin="round" />
    <path id="path_12" d="M 5.292 26.458 L 7.938 26.458 L 7.938 29.104 L 5.292 29.104 Z"
        fill="#7f0000" stroke-width="0.949997" stroke-linecap="round" stroke-linejoin="round" />
    <path id="path_13" d="M 18.521 23.813 L 21.167 23.813 L 21.167 26.458 L 18.521 26.458 Z"
        fill="#7f0000" stroke-width="0.949997" stroke-linecap="round" stroke-linejoin="round" />
    <path id="path_14" d="M 21.167 26.458 L 23.813 26.458 L 23.813 29.104 L 21.167 29.104 Z"
        fill="#7f0000" stroke-width="0.949997" stroke-linecap="round" stroke-linejoin="round" />
    <path id="path_15" d="M 18.521 29.104 L 21.167 29.104 L 21.167 31.75 L 18.521 31.75 Z"
        fill="#7f0000" stroke-width="0.949997" stroke-linecap="round" stroke-linejoin="round" />
</svg>
