<svg xmlns="http://www.w3.org/2000/svg" viewBox="0 0 29 55" width="29" height="55" id="vector">
    <path id="path" d="M 0 29.104 L 2.646 29.104 L 2.646 31.75 L 0 31.75 Z" fill="#7f0000"
        stroke-width="0.949997" stroke-linecap="round" stroke-linejoin="round" />
    <path id="path_1" d="M 0 34.396 L 2.646 34.396 L 2.646 37.042 L 0 37.042 Z" fill="#7f0000"
        stroke-width="0.949997" stroke-linecap="round" stroke-linejoin="round" />
    <path id="path_2" d="M 0 39.688 L 2.646 39.688 L 2.646 42.333 L 0 42.333 Z" fill="#7f0000"
        stroke-width="0.949997" stroke-linecap="round" stroke-linejoin="round" />
    <path id="path_3" d="M 0 44.979 L 2.646 44.979 L 2.646 47.625 L 0 47.625 Z" fill="#7f0000"
        stroke-width="0.949997" stroke-linecap="round" stroke-linejoin="round" />
    <path id="path_4" d="M 0 50.271 L 2.646 50.271 L 2.646 52.917 L 0 52.917 Z" fill="#7f0000"
        stroke-width="0.949997" stroke-linecap="round" stroke-linejoin="round" />
    <path id="path_5" d="M 2.646 31.75 L 5.292 31.75 L 5.292 34.396 L 2.646 34.396 Z" fill="#7f0000"
        stroke-width="0.949997" stroke-linecap="round" stroke-linejoin="round" />
    <path id="path_6" d="M 5.292 34.396 L 7.938 34.396 L 7.938 37.042 L 5.292 37.042 Z"
        fill="#7f0000" stroke-width="0.949997" stroke-linecap="round" stroke-linejoin="round" />
    <path id="path_7" d="M 5.292 39.688 L 7.938 39.688 L 7.938 42.333 L 5.292 42.333 Z"
        fill="#7f0000" stroke-width="0.949997" stroke-linecap="round" stroke-linejoin="round" />
    <path id="path_8" d="M 2.646 37.042 L 5.292 37.042 L 5.292 39.688 L 2.646 39.688 Z"
        fill="#7f0000" stroke-width="0.949997" stroke-linecap="round" stroke-linejoin="round" />
    <path id="path_9" d="M 2.646 42.333 L 5.292 42.333 L 5.292 44.979 L 2.646 44.979 Z"
        fill="#7f0000" stroke-width="0.949997" stroke-linecap="round" stroke-linejoin="round" />
    <path id="path_10" d="M 5.292 44.979 L 7.938 44.979 L 7.938 47.625 L 5.292 47.625 Z"
        fill="#7f0000" stroke-width="0.949997" stroke-linecap="round" stroke-linejoin="round" />
    <path id="path_11" d="M 2.646 47.625 L 5.292 47.625 L 5.292 50.271 L 2.646 50.271 Z"
        fill="#7f0000" stroke-width="0.949997" stroke-linecap="round" stroke-linejoin="round" />
    <path id="path_12" d="M 0 2.646 L 2.646 2.646 L 2.646 5.292 L 0 5.292 Z" fill="#7f0000"
        stroke-width="0.949997" stroke-linecap="round" stroke-linejoin="round" />
    <path id="path_13" d="M 0 7.938 L 2.646 7.938 L 2.646 10.583 L 0 10.583 Z" fill="#7f0000"
        stroke-width="0.949997" stroke-linecap="round" stroke-linejoin="round" />
    <path id="path_14" d="M 0 13.229 L 2.646 13.229 L 2.646 15.875 L 0 15.875 Z" fill="#7f0000"
        stroke-width="0.949997" stroke-linecap="round" stroke-linejoin="round" />
    <path id="path_15" d="M 0 18.521 L 2.646 18.521 L 2.646 21.167 L 0 21.167 Z" fill="#7f0000"
        stroke-width="0.949997" stroke-linecap="round" stroke-linejoin="round" />
    <path id="path_16" d="M 0 23.813 L 2.646 23.813 L 2.646 26.458 L 0 26.458 Z" fill="#7f0000"
        stroke-width="0.949997" stroke-linecap="round" stroke-linejoin="round" />
    <path id="path_17" d="M 2.646 5.292 L 5.292 5.292 L 5.292 7.938 L 2.646 7.938 Z" fill="#7f0000"
        stroke-width="0.949997" stroke-linecap="round" stroke-linejoin="round" />
    <path id="path_18" d="M 5.292 7.938 L 7.938 7.938 L 7.938 10.583 L 5.292 10.583 Z"
        fill="#7f0000" stroke-width="0.949997" stroke-linecap="round" stroke-linejoin="round" />
    <path id="path_19" d="M 5.292 13.229 L 7.938 13.229 L 7.938 15.875 L 5.292 15.875 Z"
        fill="#7f0000" stroke-width="0.949997" stroke-linecap="round" stroke-linejoin="round" />
    <path id="path_20" d="M 2.646 10.583 L 5.292 10.583 L 5.292 13.229 L 2.646 13.229 Z"
        fill="#7f0000" stroke-width="0.949997" stroke-linecap="round" stroke-linejoin="round" />
    <path id="path_21" d="M 2.646 15.875 L 5.292 15.875 L 5.292 18.521 L 2.646 18.521 Z"
        fill="#7f0000" stroke-width="0.949997" stroke-linecap="round" stroke-linejoin="round" />
    <path id="path_22" d="M 5.292 18.521 L 7.938 18.521 L 7.938 21.167 L 5.292 21.167 Z"
        fill="#7f0000" stroke-width="0.949997" stroke-linecap="round" stroke-linejoin="round" />
    <path id="path_23" d="M 2.646 21.167 L 5.292 21.167 L 5.292 23.813 L 2.646 23.813 Z"
        fill="#7f0000" stroke-width="0.949997" stroke-linecap="round" stroke-linejoin="round" />
    <path id="path_24" d="M 10.583 47.625 L 13.229 47.625 L 13.229 50.271 L 10.583 50.271 Z"
        fill="#7f0000" stroke-width="0.949997" stroke-linecap="round" stroke-linejoin="round" />
    <path id="path_25" d="M 15.875 47.625 L 18.521 47.625 L 18.521 50.271 L 15.875 50.271 Z"
        fill="#7f0000" stroke-width="0.949997" stroke-linecap="round" stroke-linejoin="round" />
    <path id="path_26" d="M 13.229 50.271 L 15.875 50.271 L 15.875 52.917 L 13.229 52.917 Z"
        fill="#7f0000" stroke-width="0.949997" stroke-linecap="round" stroke-linejoin="round" />
    <path id="path_27" d="M 7.938 50.271 L 10.583 50.271 L 10.583 52.917 L 7.938 52.917 Z"
        fill="#7f0000" stroke-width="0.949997" stroke-linecap="round" stroke-linejoin="round" />
    <path id="path_28" d="M 10.583 52.917 L 13.229 52.917 L 13.229 55.563 L 10.583 55.563 Z"
        fill="#7f0000" stroke-width="0.949997" stroke-linecap="round" stroke-linejoin="round" />
    <path id="path_29" d="M 5.292 52.917 L 7.938 52.917 L 7.938 55.563 L 5.292 55.563 Z"
        fill="#7f0000" stroke-width="0.949997" stroke-linecap="round" stroke-linejoin="round" />
    <path id="path_30" d="M 15.875 52.917 L 18.521 52.917 L 18.521 55.563 L 15.875 55.563 Z"
        fill="#7f0000" stroke-width="0.949997" stroke-linecap="round" stroke-linejoin="round" />
    <path id="path_31" d="M 18.521 50.271 L 21.167 50.271 L 21.167 52.917 L 18.521 52.917 Z"
        fill="#7f0000" stroke-width="0.949997" stroke-linecap="round" stroke-linejoin="round" />
    <path id="path_32" d="M 21.167 52.917 L 23.813 52.917 L 23.813 55.563 L 21.167 55.563 Z"
        fill="#7f0000" stroke-width="0.949997" stroke-linecap="round" stroke-linejoin="round" />
    <path id="path_33" d="M 10.583 5.292 L 13.229 5.292 L 13.229 7.938 L 10.583 7.938 Z"
        fill="#7f0000" stroke-width="0.949997" stroke-linecap="round" stroke-linejoin="round" />
    <path id="path_34" d="M 15.875 5.292 L 18.521 5.292 L 18.521 7.938 L 15.875 7.938 Z"
        fill="#7f0000" stroke-width="0.949997" stroke-linecap="round" stroke-linejoin="round" />
    <path id="path_35" d="M 13.229 2.646 L 15.875 2.646 L 15.875 5.292 L 13.229 5.292 Z"
        fill="#7f0000" stroke-width="0.949997" stroke-linecap="round" stroke-linejoin="round" />
    <path id="path_36" d="M 7.938 2.646 L 10.583 2.646 L 10.583 5.292 L 7.938 5.292 Z"
        fill="#7f0000" stroke-width="0.949997" stroke-linecap="round" stroke-linejoin="round" />
    <path id="path_37" d="M 10.583 0 L 13.229 0 L 13.229 2.646 L 10.583 2.646 Z" fill="#7f0000"
        stroke-width="0.949997" stroke-linecap="round" stroke-linejoin="round" />
    <path id="path_38" d="M 5.292 0 L 7.938 0 L 7.938 2.646 L 5.292 2.646 Z" fill="#7f0000"
        stroke-width="0.949997" stroke-linecap="round" stroke-linejoin="round" />
    <path id="path_39" d="M 15.875 0 L 18.521 0 L 18.521 2.646 L 15.875 2.646 Z" fill="#7f0000"
        stroke-width="0.949997" stroke-linecap="round" stroke-linejoin="round" />
    <path id="path_40" d="M 18.521 2.646 L 21.167 2.646 L 21.167 5.292 L 18.521 5.292 Z"
        fill="#7f0000" stroke-width="0.949997" stroke-linecap="round" stroke-linejoin="round" />
    <path id="path_41" d="M 21.167 0 L 23.813 0 L 23.813 2.646 L 21.167 2.646 Z" fill="#7f0000"
        stroke-width="0.949997" stroke-linecap="round" stroke-linejoin="round" />
    <path id="path_42"
        d="M 5.292 23.813 L 5.292 26.458 L 2.646 26.458 L 2.646 29.104 L 5.292 29.104 L 5.292 31.75 L 23.813 31.75 L 23.813 29.104 L 26.458 29.104 L 26.458 26.458 L 23.813 26.458 L 23.813 23.813 Z"
        fill="#ff0000" stroke-width="2.85001" stroke-linecap="round" stroke-linejoin="round" />
    <path id="path_43" d="M 26.458 29.104 L 29.104 29.104 L 29.104 31.75 L 26.458 31.75 Z"
        fill="#7f0000" stroke-width="0.949997" stroke-linecap="round" stroke-linejoin="round" />
    <path id="path_44" d="M 26.458 34.396 L 29.104 34.396 L 29.104 37.042 L 26.458 37.042 Z"
        fill="#7f0000" stroke-width="0.949997" stroke-linecap="round" stroke-linejoin="round" />
    <path id="path_45" d="M 26.458 39.688 L 29.104 39.688 L 29.104 42.333 L 26.458 42.333 Z"
        fill="#7f0000" stroke-width="0.949997" stroke-linecap="round" stroke-linejoin="round" />
    <path id="path_46" d="M 26.458 44.979 L 29.104 44.979 L 29.104 47.625 L 26.458 47.625 Z"
        fill="#7f0000" stroke-width="0.949997" stroke-linecap="round" stroke-linejoin="round" />
    <path id="path_47" d="M 26.458 50.271 L 29.104 50.271 L 29.104 52.917 L 26.458 52.917 Z"
        fill="#7f0000" stroke-width="0.949997" stroke-linecap="round" stroke-linejoin="round" />
    <path id="path_48" d="M 23.813 31.75 L 26.458 31.75 L 26.458 34.396 L 23.813 34.396 Z"
        fill="#7f0000" stroke-width="0.949997" stroke-linecap="round" stroke-linejoin="round" />
    <path id="path_49" d="M 23.813 37.042 L 26.458 37.042 L 26.458 39.688 L 23.813 39.688 Z"
        fill="#7f0000" stroke-width="0.949997" stroke-linecap="round" stroke-linejoin="round" />
    <path id="path_50" d="M 23.813 42.333 L 26.458 42.333 L 26.458 44.979 L 23.813 44.979 Z"
        fill="#7f0000" stroke-width="0.949997" stroke-linecap="round" stroke-linejoin="round" />
    <path id="path_51" d="M 23.813 47.625 L 26.458 47.625 L 26.458 50.271 L 23.813 50.271 Z"
        fill="#7f0000" stroke-width="0.949997" stroke-linecap="round" stroke-linejoin="round" />
    <path id="path_52" d="M 21.167 34.396 L 23.813 34.396 L 23.813 37.042 L 21.167 37.042 Z"
        fill="#7f0000" stroke-width="0.949997" stroke-linecap="round" stroke-linejoin="round" />
    <path id="path_53" d="M 21.167 39.688 L 23.812 39.688 L 23.812 42.333 L 21.167 42.333 Z"
        fill="#7f0000" stroke-width="0.949997" stroke-linecap="round" stroke-linejoin="round" />
    <path id="path_54" d="M 21.167 44.979 L 23.812 44.979 L 23.812 47.625 L 21.167 47.625 Z"
        fill="#7f0000" stroke-width="0.949997" stroke-linecap="round" stroke-linejoin="round" />
    <path id="path_55" d="M 26.458 2.646 L 29.104 2.646 L 29.104 5.292 L 26.458 5.292 Z"
        fill="#7f0000" stroke-width="0.949997" stroke-linecap="round" stroke-linejoin="round" />
    <path id="path_56" d="M 26.458 7.938 L 29.104 7.938 L 29.104 10.583 L 26.458 10.583 Z"
        fill="#7f0000" stroke-width="0.949997" stroke-linecap="round" stroke-linejoin="round" />
    <path id="path_57" d="M 26.458 13.229 L 29.104 13.229 L 29.104 15.875 L 26.458 15.875 Z"
        fill="#7f0000" stroke-width="0.949997" stroke-linecap="round" stroke-linejoin="round" />
    <path id="path_58" d="M 26.458 18.521 L 29.104 18.521 L 29.104 21.167 L 26.458 21.167 Z"
        fill="#7f0000" stroke-width="0.949997" stroke-linecap="round" stroke-linejoin="round" />
    <path id="path_59" d="M 26.458 23.813 L 29.104 23.813 L 29.104 26.458 L 26.458 26.458 Z"
        fill="#7f0000" stroke-width="0.949997" stroke-linecap="round" stroke-linejoin="round" />
    <path id="path_60" d="M 23.813 5.292 L 26.458 5.292 L 26.458 7.938 L 23.813 7.938 Z"
        fill="#7f0000" stroke-width="0.949997" stroke-linecap="round" stroke-linejoin="round" />
    <path id="path_61" d="M 23.813 10.583 L 26.458 10.583 L 26.458 13.229 L 23.813 13.229 Z"
        fill="#7f0000" stroke-width="0.949997" stroke-linecap="round" stroke-linejoin="round" />
    <path id="path_62" d="M 23.813 15.875 L 26.458 15.875 L 26.458 18.521 L 23.813 18.521 Z"
        fill="#7f0000" stroke-width="0.949997" stroke-linecap="round" stroke-linejoin="round" />
    <path id="path_63" d="M 23.813 21.167 L 26.458 21.167 L 26.458 23.813 L 23.813 23.813 Z"
        fill="#7f0000" stroke-width="0.949997" stroke-linecap="round" stroke-linejoin="round" />
    <path id="path_64" d="M 21.167 7.938 L 23.813 7.938 L 23.813 10.583 L 21.167 10.583 Z"
        fill="#7f0000" stroke-width="0.949997" stroke-linecap="round" stroke-linejoin="round" />
    <path id="path_65" d="M 21.167 13.229 L 23.812 13.229 L 23.812 15.875 L 21.167 15.875 Z"
        fill="#7f0000" stroke-width="0.949997" stroke-linecap="round" stroke-linejoin="round" />
    <path id="path_66" d="M 21.167 18.521 L 23.812 18.521 L 23.812 21.167 L 21.167 21.167 Z"
        fill="#7f0000" stroke-width="0.949997" stroke-linecap="round" stroke-linejoin="round" />
</svg>
