<svg
    xmlns="http://www.w3.org/2000/svg"
    viewBox="0 0 29 55"
    id="vector">
    <path
        id="path"
        d="M 5.292 23.813 L 5.292 26.458 L 2.646 26.458 L 2.646 29.104 L 5.292 29.104 L 5.292 31.75 L 23.813 31.75 L 23.813 29.104 L 26.458 29.104 L 26.458 26.458 L 23.813 26.458 L 23.813 23.813 Z"
        fill="#ff0000"
        stroke-width="2.850012"
        stroke-linecap="round"
        stroke-linejoin="round"/>
    <path
        id="path_1"
        d="M 0 2.646 L 0 26.458 L 2.646 26.458 L 2.646 23.813 L 5.292 23.813 L 5.292 21.167 L 7.937 21.167 L 7.938 7.938 L 5.292 7.938 L 5.292 5.292 L 2.646 5.292 L 2.646 2.646 Z"
        fill="#ff0000"
        stroke-width="2.850012"
        stroke-linecap="round"
        stroke-linejoin="round"/>
    <path
        id="path_2"
        d="M 26.458 2.646 L 26.458 5.292 L 23.813 5.292 L 23.813 7.937 L 21.167 7.937 L 21.167 21.167 L 23.813 21.167 L 23.813 23.812 L 26.458 23.812 L 26.458 26.458 L 29.104 26.458 L 29.104 2.646 Z"
        fill="#ff0000"
        stroke-width="2.1242707"
        stroke-linecap="round"
        stroke-linejoin="round"/>
    <path
        id="path_3"
        d="M 26.458 29.104 L 26.458 31.75 L 23.813 31.75 L 23.813 34.396 L 21.167 34.396 L 21.167 47.625 L 23.813 47.625 L 23.813 50.271 L 26.458 50.271 L 26.458 52.917 L 29.104 52.917 L 29.104 29.104 Z"
        fill="#ff0000"
        stroke-width="2.1242707"
        stroke-linecap="round"
        stroke-linejoin="round"/>
    <path
        id="path_4"
        d="M 0 29.104 L 2.646 29.104 L 2.646 31.75 L 0 31.75 Z"
        fill="#7f0000"
        stroke-width="0.949997"
        stroke-linecap="round"
        stroke-linejoin="round"/>
    <path
        id="path_5"
        d="M 0 34.396 L 2.646 34.396 L 2.646 37.042 L 0 37.042 Z"
        fill="#7f0000"
        stroke-width="0.949997"
        stroke-linecap="round"
        stroke-linejoin="round"/>
    <path
        id="path_6"
        d="M 0 39.688 L 2.646 39.688 L 2.646 42.333 L 0 42.333 Z"
        fill="#7f0000"
        stroke-width="0.949997"
        stroke-linecap="round"
        stroke-linejoin="round"/>
    <path
        id="path_7"
        d="M 0 44.979 L 2.646 44.979 L 2.646 47.625 L 0 47.625 Z"
        fill="#7f0000"
        stroke-width="0.949997"
        stroke-linecap="round"
        stroke-linejoin="round"/>
    <path
        id="path_8"
        d="M 0 50.271 L 2.646 50.271 L 2.646 52.917 L 0 52.917 Z"
        fill="#7f0000"
        stroke-width="0.949997"
        stroke-linecap="round"
        stroke-linejoin="round"/>
    <path
        id="path_9"
        d="M 2.646 31.75 L 5.292 31.75 L 5.292 34.396 L 2.646 34.396 Z"
        fill="#7f0000"
        stroke-width="0.949997"
        stroke-linecap="round"
        stroke-linejoin="round"/>
    <path
        id="path_10"
        d="M 5.292 34.396 L 7.938 34.396 L 7.938 37.042 L 5.292 37.042 Z"
        fill="#7f0000"
        stroke-width="0.949997"
        stroke-linecap="round"
        stroke-linejoin="round"/>
    <path
        id="path_11"
        d="M 5.292 39.688 L 7.938 39.688 L 7.938 42.333 L 5.292 42.333 Z"
        fill="#7f0000"
        stroke-width="0.949997"
        stroke-linecap="round"
        stroke-linejoin="round"/>
    <path
        id="path_12"
        d="M 2.646 37.042 L 5.292 37.042 L 5.292 39.688 L 2.646 39.688 Z"
        fill="#7f0000"
        stroke-width="0.949997"
        stroke-linecap="round"
        stroke-linejoin="round"/>
    <path
        id="path_13"
        d="M 2.646 42.333 L 5.292 42.333 L 5.292 44.979 L 2.646 44.979 Z"
        fill="#7f0000"
        stroke-width="0.949997"
        stroke-linecap="round"
        stroke-linejoin="round"/>
    <path
        id="path_14"
        d="M 5.292 44.979 L 7.938 44.979 L 7.938 47.625 L 5.292 47.625 Z"
        fill="#7f0000"
        stroke-width="0.949997"
        stroke-linecap="round"
        stroke-linejoin="round"/>
    <path
        id="path_15"
        d="M 2.646 47.625 L 5.292 47.625 L 5.292 50.271 L 2.646 50.271 Z"
        fill="#7f0000"
        stroke-width="0.949997"
        stroke-linecap="round"
        stroke-linejoin="round"/>
    <path
        id="path_16"
        d="M 10.583 5.292 L 13.229 5.292 L 13.229 7.938 L 10.583 7.938 Z"
        fill="#7f0000"
        stroke-width="0.949997"
        stroke-linecap="round"
        stroke-linejoin="round"/>
    <path
        id="path_17"
        d="M 15.875 5.292 L 18.521 5.292 L 18.521 7.938 L 15.875 7.938 Z"
        fill="#7f0000"
        stroke-width="0.949997"
        stroke-linecap="round"
        stroke-linejoin="round"/>
    <path
        id="path_18"
        d="M 13.229 2.646 L 15.875 2.646 L 15.875 5.292 L 13.229 5.292 Z"
        fill="#7f0000"
        stroke-width="0.949997"
        stroke-linecap="round"
        stroke-linejoin="round"/>
    <path
        id="path_19"
        d="M 7.938 2.646 L 10.583 2.646 L 10.583 5.292 L 7.938 5.292 Z"
        fill="#7f0000"
        stroke-width="0.949997"
        stroke-linecap="round"
        stroke-linejoin="round"/>
    <path
        id="path_20"
        d="M 10.583 0 L 13.229 0 L 13.229 2.646 L 10.583 2.646 Z"
        fill="#7f0000"
        stroke-width="0.949997"
        stroke-linecap="round"
        stroke-linejoin="round"/>
    <path
        id="path_21"
        d="M 5.292 0 L 7.938 0 L 7.938 2.646 L 5.292 2.646 Z"
        fill="#7f0000"
        stroke-width="0.949997"
        stroke-linecap="round"
        stroke-linejoin="round"/>
    <path
        id="path_22"
        d="M 15.875 0 L 18.521 0 L 18.521 2.646 L 15.875 2.646 Z"
        fill="#7f0000"
        stroke-width="0.949997"
        stroke-linecap="round"
        stroke-linejoin="round"/>
    <path
        id="path_23"
        d="M 18.521 2.646 L 21.167 2.646 L 21.167 5.292 L 18.521 5.292 Z"
        fill="#7f0000"
        stroke-width="0.949997"
        stroke-linecap="round"
        stroke-linejoin="round"/>
    <path
        id="path_24"
        d="M 21.167 0 L 23.813 0 L 23.813 2.646 L 21.167 2.646 Z"
        fill="#7f0000"
        stroke-width="0.949997"
        stroke-linecap="round"
        stroke-linejoin="round"/>
    <path
        id="path_25"
        d="M 10.583 47.625 L 13.229 47.625 L 13.229 50.271 L 10.583 50.271 Z"
        fill="#7f0000"
        stroke-width="0.949997"
        stroke-linecap="round"
        stroke-linejoin="round"/>
    <path
        id="path_26"
        d="M 15.875 47.625 L 18.521 47.625 L 18.521 50.271 L 15.875 50.271 Z"
        fill="#7f0000"
        stroke-width="0.949997"
        stroke-linecap="round"
        stroke-linejoin="round"/>
    <path
        id="path_27"
        d="M 13.229 50.271 L 15.875 50.271 L 15.875 52.917 L 13.229 52.917 Z"
        fill="#7f0000"
        stroke-width="0.949997"
        stroke-linecap="round"
        stroke-linejoin="round"/>
    <path
        id="path_28"
        d="M 7.938 50.271 L 10.583 50.271 L 10.583 52.917 L 7.938 52.917 Z"
        fill="#7f0000"
        stroke-width="0.949997"
        stroke-linecap="round"
        stroke-linejoin="round"/>
    <path
        id="path_29"
        d="M 10.583 52.917 L 13.229 52.917 L 13.229 55.563 L 10.583 55.563 Z"
        fill="#7f0000"
        stroke-width="0.949997"
        stroke-linecap="round"
        stroke-linejoin="round"/>
    <path
        id="path_30"
        d="M 5.292 52.917 L 7.938 52.917 L 7.938 55.563 L 5.292 55.563 Z"
        fill="#7f0000"
        stroke-width="0.949997"
        stroke-linecap="round"
        stroke-linejoin="round"/>
    <path
        id="path_31"
        d="M 15.875 52.917 L 18.521 52.917 L 18.521 55.563 L 15.875 55.563 Z"
        fill="#7f0000"
        stroke-width="0.949997"
        stroke-linecap="round"
        stroke-linejoin="round"/>
    <path
        id="path_32"
        d="M 18.521 50.271 L 21.167 50.271 L 21.167 52.917 L 18.521 52.917 Z"
        fill="#7f0000"
        stroke-width="0.949997"
        stroke-linecap="round"
        stroke-linejoin="round"/>
    <path
        id="path_33"
        d="M 21.167 52.917 L 23.813 52.917 L 23.813 55.563 L 21.167 55.563 Z"
        fill="#7f0000"
        stroke-width="0.949997"
        stroke-linecap="round"
        stroke-linejoin="round"/>
</svg>
