<svg
    xmlns="http://www.w3.org/2000/svg"
    viewBox="0 0 22 22"
    id="vector">
    <path
        id="path"
        d="M 7.938 0 L 7.938 1.323 L 14.552 1.323 L 14.552 0 Z M 14.552 1.323 L 14.552 2.646 L 17.198 2.646 L 17.198 1.323 Z M 17.198 2.646 L 17.198 3.969 L 18.521 3.969 L 18.521 2.646 Z M 18.521 3.969 L 18.521 5.292 L 19.844 5.292 L 19.844 3.969 Z M 19.844 5.292 L 19.844 7.938 L 21.167 7.938 L 21.167 5.292 Z M 21.167 7.938 L 21.167 14.552 L 22.49 14.552 L 22.49 7.938 Z M 21.167 14.552 L 19.844 14.552 L 19.844 17.198 L 21.167 17.198 Z M 19.844 17.198 L 18.521 17.198 L 18.521 18.521 L 19.844 18.521 Z M 18.521 18.521 L 17.198 18.521 L 17.198 19.844 L 18.521 19.844 Z M 17.198 19.844 L 14.552 19.844 L 14.552 21.167 L 17.198 21.167 Z M 14.552 21.167 L 7.938 21.167 L 7.938 22.49 L 14.552 22.49 Z M 7.938 21.167 L 7.938 19.844 L 5.292 19.844 L 5.292 21.167 Z M 5.292 19.844 L 5.292 18.521 L 3.969 18.521 L 3.969 19.844 Z M 3.969 18.521 L 3.969 17.198 L 2.646 17.198 L 2.646 18.521 Z M 2.646 17.198 L 2.646 14.552 L 1.323 14.552 L 1.323 17.198 Z M 1.323 14.552 L 1.323 7.938 L 0 7.938 L 0 14.552 Z M 1.323 7.938 L 2.646 7.938 L 2.646 5.292 L 1.323 5.292 Z M 2.646 5.292 L 3.969 5.292 L 3.969 3.969 L 2.646 3.969 Z M 3.969 3.969 L 5.292 3.969 L 5.292 2.646 L 3.969 2.646 Z M 5.292 2.646 L 7.938 2.646 L 7.938 1.323 L 5.292 1.323 Z"
        fill="#000000"
        stroke="#00000000"
        stroke-width="0.950005"
        stroke-linecap="round"
        stroke-linejoin="round"/>
    <path
        id="path_1"
        d="M 1.323 7.938 L 1.323 14.552 L 2.646 14.552 L 2.646 17.198 L 3.969 17.198 L 3.969 18.521 L 5.292 18.521 L 5.292 19.844 L 7.937 19.844 L 7.937 21.167 L 14.552 21.167 L 14.552 19.844 L 17.198 19.844 L 17.198 18.521 L 18.521 18.521 L 18.521 17.198 L 19.844 17.198 L 19.844 14.552 L 21.167 14.552 L 21.167 7.938 L 19.844 7.938 L 19.844 5.292 L 18.521 5.292 L 18.521 3.969 L 17.198 3.969 L 17.198 2.646 L 14.552 2.646 L 14.552 1.323 L 7.938 1.323 L 7.938 2.646 L 5.292 2.646 L 5.292 3.969 L 3.969 3.969 L 3.969 5.292 L 2.646 5.292 L 2.646 7.938 Z"
        fill="#ffff00"
        stroke="#00000000"
        stroke-width="0.85"
        stroke-linecap="round"
        stroke-linejoin="round"/>
    <path
        id="path_2"
        d="M 9.26 11.906 L 9.26 13.229 L 9.26 14.552 L 10.583 14.552 L 10.583 13.229 L 11.906 13.229 L 11.906 14.552 L 13.229 14.552 L 13.229 13.229 L 13.229 11.906 Z M 13.229 14.552 L 13.229 15.875 L 14.552 15.875 L 14.552 14.552 Z M 13.229 15.875 L 11.906 15.875 L 11.906 17.198 L 10.583 17.198 L 10.583 15.875 L 9.26 15.875 L 9.26 17.198 L 9.26 18.521 L 13.229 18.521 L 13.229 17.198 Z M 9.26 15.875 L 9.26 14.552 L 7.938 14.552 L 7.938 15.875 Z"
        fill="#000000"
        stroke="#00000000"
        stroke-width="0.735867"
        stroke-linecap="round"
        stroke-linejoin="round"/>
    <path
        id="path_3"
        d="M 5.292 3.969 L 9.261 3.969 L 9.261 7.938 L 5.292 7.938 Z"
        fill="#000000"
        stroke="#00000000"
        stroke-width="1.425"
        stroke-linecap="round"
        stroke-linejoin="round"/>
    <path
        id="path_4"
        d="M 13.229 3.969 L 17.198 3.969 L 17.198 7.938 L 13.229 7.938 Z"
        fill="#000000"
        stroke="#00000000"
        stroke-width="1.425"
        stroke-linecap="round"
        stroke-linejoin="round"/>
</svg>
